<?xml version="1.0" encoding="UTF-8"?>
<svg id="Layer_2" data-name="Layer 2" xmlns="http://www.w3.org/2000/svg" viewBox="0 0 850.94 732.76">
  <defs>
    <style>
      .cls-1 {
        letter-spacing: .3em;
      }

      .cls-2 {
        font-family: SFUIDisplay-Semibold, 'SF UI Display';
        font-size: 72px;
        font-weight: 700;
      }

      .cls-2, .cls-3 {
        fill: #006838;
      }

      .cls-4 {
        fill: #121212;
      }

      .cls-5 {
        letter-spacing: .26em;
      }
    </style>
  </defs>
  <g id="Layer_1-2" data-name="Layer 1">
    <g>
      <g>
        <polygon class="cls-3" points="498.47 233.69 498.47 311.21 419.27 311.21 419.27 562.03 328.1 562.03 328.1 233.69 498.47 233.69"/>
        <rect class="cls-3" x="203.97" y="233.69" width="90.16" height="77.52"/>
        <path class="cls-4" d="M748.39,401.17c0,49.6-17.4,88.81-52.19,117.63-34.8,28.82-82.19,43.23-142.17,43.23h-103.7v-87.64h73.72c34.01,0,59.91-7.08,77.7-21.23,17.78-14.15,26.67-34.6,26.67-61.34s-9.15-46.22-27.46-59.98c-16.55-12.45-39.85-19.26-69.89-20.44v-79.14c20.17-2.56,36.52-8.64,49.05-18.24,17.13-13.11,25.71-31.61,25.71-55.51,0-22.58-7.54-40.04-22.59-52.39-15.07-12.32-36.36-18.49-63.88-18.49h-100.11v111.2h-91.17V0h221.65c52.71,0,94.51,12.6,125.41,37.78,30.9,25.19,46.36,59.34,46.36,102.43,0,30.65-10.07,57.52-30.19,80.62-20.12,23.12-45.25,36.88-75.36,41.29v3.11c38.42,2.86,70.1,17.01,95.04,42.46,24.93,25.44,37.39,56.6,37.39,93.47Z"/>
        <rect class="cls-4" x="80.92" width="91.17" height="562.04" transform="translate(253 562.04) rotate(180)"/>
      </g>
      <text class="cls-2" transform="translate(0 701.4)"><tspan class="cls-1" x="0" y="0">HABILLE</tspan><tspan class="cls-5" x="432.52" y="0">T</tspan><tspan class="cls-1" x="494.41" y="0">OIBIEN</tspan></text>
    </g>
  </g>
</svg>